<svg id="RGS_Property_Services_Logo" xmlns="http://www.w3.org/2000/svg" viewBox="0 0 230 50"><defs><style>.cls-1{fill:#ea4651;}.cls-2{fill:#ede01e;}.cls-3{fill:#35469a;}.cls-4{fill:#3b4577;}.cls-5{fill:#fefefe;}.cls-6{fill:#f0ea97;}</style></defs><path class="cls-1" d="M27.54,29.31l.48,0H230V43.9H27.53l-.57,0H0V29.31H3.8l.33,0H22.61Zm127.68,8.2.13-.15c.07-.09.18-.06.27-.08a2.13,2.13,0,0,0,1.51-1,2.43,2.43,0,0,0,.2-2.13,2.51,2.51,0,0,0-2.44-1.52c-1.53-.06-3.07,0-4.6,0-.15,0-.31-.06-.44,0v8.55h1.8V37.61a2.41,2.41,0,0,1,2.43,1c.61.74,1.11,1.55,1.68,2.32.1.14.19.29.39.28h2.15C157.23,39.92,156.68,38.37,155.22,37.51ZM90.15,41.19V37.57a2.67,2.67,0,0,1,2.44,1l1.66,2.33a.48.48,0,0,0,.41.28h2.11c-1.08-1.37-1.65-3-3.24-3.79.33-.09.64-.15.93-.26A2.35,2.35,0,0,0,96,34.42a2.67,2.67,0,0,0-2.48-1.83q-2.37,0-4.74,0c-.13,0-.29-.06-.4.07v8.53ZM43,32.59v8.6h1.8V37.56a2.74,2.74,0,0,1,2.44,1c.57.77,1.12,1.55,1.67,2.33.1.13.17.28.36.28h2.15c-1-1.38-1.67-3-3.25-3.77l.9-.25a2.36,2.36,0,0,0,1.27-3.4,2.48,2.48,0,0,0-2-1.17C46.56,32.53,44.8,32.59,43,32.59Zm15.79,8.72a4.61,4.61,0,0,0,2.9-.89,2.07,2.07,0,0,0,.73-.74,5.46,5.46,0,0,0,.67-4,3.68,3.68,0,0,0-1.47-2.37,5,5,0,0,0-4.24-.76c-2.42.55-3,1.76-3.29,4a4.62,4.62,0,0,0,.75,2.92A3.05,3.05,0,0,0,56,40.73,5.07,5.07,0,0,0,58.81,41.31Zm82.11-3.94h4.64V35.91h-4.63V34h5V32.61H139v8.57h7.17V39.66h-5.27Zm50,2.29V37.37h4.64a7.69,7.69,0,0,0,0-1.44H191V34h5V32.62H189v8.56h7.13V39.66ZM84.65,41.21a9.88,9.88,0,0,0,0-1.54h-5.2v-2.3h4.65a8.83,8.83,0,0,0,0-1.45H79.43V34h5a8.11,8.11,0,0,0,0-1.4H77.51v8.59Zm43.08-2.87a5.32,5.32,0,0,0,.51,1.33,2.65,2.65,0,0,0,2.16,1.61,11.2,11.2,0,0,0,2.52,0,3.25,3.25,0,0,0,1.85-.93,2.83,2.83,0,0,0,.28-3,4,4,0,0,0-1.73-1.09c-.95-.36-2-.42-2.93-.85-.28-.13-.5-.32-.49-.61a.78.78,0,0,1,.58-.73,3.87,3.87,0,0,1,1.59-.07,1.28,1.28,0,0,1,1.08.86c.06.11.1.26.3.25H135c.24-1-.25-1.59-1.16-2.1a4.75,4.75,0,0,0-4.28-.16,2,2,0,0,0-1.4,2.3,2.18,2.18,0,0,0,1.23,1.74c1.25.62,2.74.55,3.93,1.38,0,1.11.19,1.15-1,1.57a2.16,2.16,0,0,1-1.44,0,1.7,1.7,0,0,1-1-1.14.41.41,0,0,0-.49-.32C128.8,38.35,128.29,38.34,127.73,38.34Zm79-3.26a2.43,2.43,0,0,0-1.43-2.23,5.61,5.61,0,0,0-4.11-.07,2.2,2.2,0,0,0-1.49,1.9A2.28,2.28,0,0,0,201.21,37a9.21,9.21,0,0,0,2.21.64,3.23,3.23,0,0,1,1.06.35c.36.17.64.37.6.8a1.1,1.1,0,0,1-.71.92,3.06,3.06,0,0,1-1.53.21,1.38,1.38,0,0,1-1.32-.93.76.76,0,0,0-.93-.61,9.58,9.58,0,0,1-1.2,0A3.13,3.13,0,0,0,202,41.26a8,8,0,0,0,2.39,0,2.63,2.63,0,0,0,2.3-3.88A3.53,3.53,0,0,0,204.36,36a18.39,18.39,0,0,1-2.18-.57.91.91,0,0,1-.66-.81.68.68,0,0,1,.73-.65,1.39,1.39,0,0,0,.31-.1,1.86,1.86,0,0,1,2.15.9c.08.16.16.28.38.28C205.61,35.07,206.14,35.08,206.73,35.08ZM68.51,41.21a.59.59,0,0,0,0-.12c0-.71,0-1.41,0-2.11,0-1,0-1,1-1a7.51,7.51,0,0,0,2.68-.26,2.61,2.61,0,0,0,1.58-3.07,2.82,2.82,0,0,0-2.47-2c-1.47-.06-2.94,0-4.41,0-.1,0-.22,0-.3,0V41.2h1.82ZM34.08,38h1a12.09,12.09,0,0,0,2-.08,2.49,2.49,0,0,0,2.23-2,2.29,2.29,0,0,0-.68-2.47,3.19,3.19,0,0,0-2.08-.86c-1.09,0-2.17,0-3.26,0H32.2v8.59h1.88Zm151.3.63c-.54-.19-1-.34-1.48-.51-.24-.09-.41,0-.43.21a2,2,0,0,1-.8,1.14,2.21,2.21,0,0,1-2.78-.16,3.32,3.32,0,0,1-.72-1.6,3.73,3.73,0,0,1,.61-2.93,2.06,2.06,0,0,1,3.51.34c.12.22.25.32.48.26l1.58-.41a3.21,3.21,0,0,0-1.22-1.76,5,5,0,0,0-4.76-.24,3.79,3.79,0,0,0-2.14,3.31,5.42,5.42,0,0,0,.54,3,3.45,3.45,0,0,0,2.62,2,4.32,4.32,0,0,0,3.92-.88A2.9,2.9,0,0,0,185.38,38.59Zm-25.29-6c.43,1.13.86,2.22,1.28,3.31l1.95,5a.38.38,0,0,0,.42.29q.69,0,1.38,0a.44.44,0,0,0,.51-.35c.79-2,1.6-4,2.41-6,.29-.73.58-1.45.88-2.22h-2l-2.29,6.3c-.07-.15-.12-.23-.16-.32L162.37,33c-.09-.22-.15-.44-.47-.43C161.31,32.6,160.72,32.58,160.09,32.58Zm-45.92,8.61c0-1.09,0-2.14,0-3.19a.66.66,0,0,1,.07-.45c.63-.88,1.25-1.76,1.87-2.65s1-1.49,1.57-2.31h-2a.25.25,0,0,0-.26.14c-.33.55-.67,1.1-1,1.64a15,15,0,0,1-1,1.56l-2-3.07c-.08-.12-.15-.27-.31-.27h-2.17c1,1.49,2,2.92,3,4.33a2.17,2.17,0,0,1,.42,1.4c0,1,0,1.9,0,2.87ZM106.58,34V32.62H99.17V34h2.75v7.14h1.93V34Zm67.06,7.16V32.62h-1.87v8.57Z"/><path class="cls-2" d="M27.54,29.31l-4.93,0H4.13l-.33,0c0-.24,0-.48,0-.72V0H27.47q0,14.24,0,28.46A3.44,3.44,0,0,0,27.54,29.31ZM17.39,19c-.17-.33-.12-.79-.54-1-.24-.49-.47-1-.71-1.48A.35.35,0,0,1,16.2,16a6.89,6.89,0,0,0,1.87-3,6.84,6.84,0,0,0-.2-4.08,6.39,6.39,0,0,0-1-1.63,6.28,6.28,0,0,0-1.71-1.62A7.33,7.33,0,0,0,12,4.82c-1.82-.17-3.65-.1-5.5-.12.21.71.4,1.39.61,2.07A7.79,7.79,0,0,1,7.55,9q0,6,0,12a4.59,4.59,0,0,1-.21,1.36c-.24.78-.43,1.59-.65,2.39-.09.31.07.41.34.41,1.61,0,3.22,0,4.83,0a5,5,0,0,0,1.53-.08,15.43,15.43,0,0,1-.92-5.66c.54.85.89,1.68,1.43,2.41s.82,1.21,1.26,1.79a9.9,9.9,0,0,0,1.07,1.17,1.55,1.55,0,0,0,1.09.38c1.69,0,3.37-.08,5.06.09s2.69-1.22,2.9-2.75a5.2,5.2,0,0,0-.4-2.4.48.48,0,0,0-.38-.58,4.28,4.28,0,0,1-.38-.26,2.3,2.3,0,0,0-3.52.73,4.94,4.94,0,0,0-.5,2.34c0,.2.2.4,0,.71A34.05,34.05,0,0,1,17.39,19Z"/><path class="cls-2" d="M27.53,43.91c-.11,2,0,4.06-.06,6.09H3.81l0-6.09H27Z"/><path class="cls-3" d="M40.68,8.63a7,7,0,0,0-1.94.1,2.8,2.8,0,0,0-1.6.81c-.11.14-.25.12-.38.17-.42.06-.7.45-.74,1,0,.42-.33.68-.44,1.07a19.68,19.68,0,0,0-.36,2c-.19,0-.22.14-.21.3a11.77,11.77,0,0,1,0,1.68c0,.09,0,.21.12.2.22.23,0,.51.1.76l.08.15,0,.15c-.3.37.2.66,0,1.08L35.6,18a7.4,7.4,0,0,0,.84,1.69,4.86,4.86,0,0,0,1.86,1.45,2.91,2.91,0,0,0,1.14.32,6.71,6.71,0,0,0,2.31-.13c-.1-2.08.35-4.23-.78-6.35h3.46c.14.34.51,0,.7.26L44.8,16.5c-.24,0-.17.23-.17.37,0,.55,0,1.1,0,1.65a24.66,24.66,0,0,0,.08,2.85c-.1,0-.11.08-.09.17.06.55-.14,1.13.19,1.64l-.07,0a1.76,1.76,0,0,0-1.44.55,10.14,10.14,0,0,1-2.58.4H38.39a12.65,12.65,0,0,1-1.83-.49,7.31,7.31,0,0,1-2.66-2c-.21-.25-.39-.52-.59-.78a1.11,1.11,0,0,0-.11-.58,5.68,5.68,0,0,1-.66-1.56c0-.19-.1-.38-.36-.35A3.89,3.89,0,0,1,32,17.26a3,3,0,0,0,0-.9c-.08-.34.17-.74-.19-1a8.81,8.81,0,0,1,.38-3.1c.18,0,.25-.09.26-.26l0,0a1.72,1.72,0,0,0,.08-.78,10.4,10.4,0,0,1,.94-1.89A10,10,0,0,1,35.69,7a4,4,0,0,1,.93-.46,5,5,0,0,1,1.77-.62c.36,0,.72,0,1.09,0,.13,0,.3.06.33-.16a6.32,6.32,0,0,1,1.74,0,5.07,5.07,0,0,1,1.38.29c.19.12.49,0,.74.07V7.53c0,.74,0,1.48,0,2.22,0,.21,0,.43-.28.43A4.08,4.08,0,0,0,41.75,9l.1-.22h-.64l0,0C41.08,8.55,40.87,8.6,40.68,8.63Z"/><path class="cls-3" d="M126.35,16.86c.84,1,1.62,2,2.52,3a1.5,1.5,0,0,0,.25.19.8.8,0,0,0,.68.67c.36.1.45-.24.53-.42a4.77,4.77,0,0,0,.34-3.44,1.2,1.2,0,0,1,0-.33c0-.34,0-.63-.38-.76a4.09,4.09,0,0,0-1-1.39c.42-.23.69-.62,1.23-.56a1.64,1.64,0,0,1,1.24.71,3.51,3.51,0,0,1,.61,1.89,8.91,8.91,0,0,1-.58,3.69A7.44,7.44,0,0,1,131,21.6a11.74,11.74,0,0,0,1.53,1.29c.22.16.63.23.51.61a1,1,0,0,1-.77.75,1.28,1.28,0,0,0-.34.14,1,1,0,0,1-1.13-.05,12.82,12.82,0,0,1-1.5-.92c-.11-.09-.22,0-.33.08A7.22,7.22,0,0,1,126.46,25a7.76,7.76,0,0,1-3.22.26,4,4,0,0,1-2.3-1c-.44-.38-1-.58-1.36-1.11a4.77,4.77,0,0,1-.62-1.67V19.93a6.53,6.53,0,0,1,2-3,10.07,10.07,0,0,1,1.43-1.18c.23,0,.55.16.57-.29s-.07-.49-.41-.47a10.35,10.35,0,0,1-1.37-2.79,5.49,5.49,0,0,1-.11-2l.12,0-.06,0,0-.19c.34-.26.26-.63.27-1a2.76,2.76,0,0,1,.88-1.26A6.78,6.78,0,0,1,124,6.43a4.29,4.29,0,0,1,1.54-.5,5.84,5.84,0,0,1,1.72-.16,4,4,0,0,0,1.22.38,3.49,3.49,0,0,1,1.44,1.36,4.23,4.23,0,0,1,.78,2.82,2.38,2.38,0,0,1-.55,1.49.89.89,0,0,1-.85.33c-.24-.07-.37-.39-.4-.62-.13-1-.43-2-.61-3.07a2.35,2.35,0,0,0-3-1.54A3.66,3.66,0,0,0,123,8.86a3.26,3.26,0,0,0,0,2.75c.16.39.35.78.53,1.17a10.37,10.37,0,0,0,1,1.58c.38.54.75,1.09,1.12,1.63,0,.2-.13.56.34.42l0,0c0,.08,0,.1.07.08l0,0C126,16.8,126.11,16.87,126.35,16.86Zm2,5.38.12-.38H128l-.09-.09-.12-.11a38.81,38.81,0,0,1-4.67-5.57,9.54,9.54,0,0,0-1,1.08,3.61,3.61,0,0,0-.78,1.5c-.13,1.29-.26,2.63.85,3.68.25.23.62.35.79.59a1.8,1.8,0,0,0,1.39.6,4.79,4.79,0,0,0,3.94-.92C128.44,22.49,128.49,22.4,128.34,22.24Z"/><path class="cls-3" d="M146.84,9.7a4.08,4.08,0,0,0-2-1.16c-.39-.12-.78-.27-1.14.07-.8.23-1,1-1.12,1.59a2.7,2.7,0,0,0,.53,2.12s0,.14.1.16a9.09,9.09,0,0,1,1.87,1.39,6.79,6.79,0,0,1,2.57,2.64,3.43,3.43,0,0,1,.47,1.78,9.34,9.34,0,0,1-.12,2.12,3,3,0,0,1-.55,1.25c-.15.14,0,.46-.28.57-.61.06-.73.19-.77.76-.49.71-1.37.71-2,1.11-.22.14-.5,0-.75.06h-2.12a2.09,2.09,0,0,0-1-.46c0-.62,0-1.23,0-1.83,0-.17.07-.35-.19-.4V19.85a.47.47,0,0,1,.49.23,3.43,3.43,0,0,0,1.89,1.34,1.73,1.73,0,0,0,2.21-.92c.35-.47.16-1,.13-1.48,0,0-.08,0-.13-.05a7.63,7.63,0,0,0-2.07-2.09,10.2,10.2,0,0,1-2.65-2.59,3.64,3.64,0,0,1-.65-1.81c0-.59,0-1.17,0-1.75,0-.25-.08-.53.12-.76.37-.52.27-1.16.45-1.73a6.93,6.93,0,0,1,1.7-1.88,2.57,2.57,0,0,1,.72-.28,5.1,5.1,0,0,1,2.35-.33c.09,0,.19,0,.24.1.37.47.89.22,1.34.28l.18,0c0,.21.2.17.31.25a.46.46,0,0,1,.26.41c0,.82,0,1.65,0,2.47C147.13,9.49,147.09,9.66,146.84,9.7Z"/><path class="cls-3" d="M168.22,14.94c-.2-.55-.42-1-1.12-1.1s-1.07.26-1.61.26c-.11.12,0,.26-.08.37a.46.46,0,0,0-.08.36v6.28c0,.12,0,.26.08.36s.1.11.1.16a7.84,7.84,0,0,0,.28,2c-.09.14-.11.3-.36.3-.92,0-1.85,0-2.77,0-.29,0-.41-.13-.39-.4.76-3,.26-6.15.35-9.23a7.6,7.6,0,0,0-.36-2.53c0-.21.09-.31.32-.31h2.29c.26,0,.49.16.44.38-.12.54.16,1.07,0,1.6,0,0,0,.18.12.12a7.74,7.74,0,0,0,1.14-1.41,1.57,1.57,0,0,1,.81-.6l.84-.25c.39-.11.8.14,1.19.27.58.18.9.71,1.36,1.06a.3.3,0,0,1,.1.2c-.05.49.24.9.23,1.39,0,2,0,4,0,6,0,.83.31,1.62.21,2.45,0,.17,0,.34,0,.51s0,.38.26.38c0,.14.17.22.1.37-1,0-2.09,0-3.13,0-.29,0-.51,0-.5-.39l.31-1.14a1.73,1.73,0,0,0,.07-.93q0-3.11,0-6.21C168.39,15.18,168.59,14.9,168.22,14.94Z"/><path class="cls-3" d="M84.75,21.46c0,.1.12.17.11.3a3.89,3.89,0,0,0,.2,1.62c0,.18.06.38-.12.58H82.06c-.27,0-.39-.17-.46-.4a11.45,11.45,0,0,0,.4-2.63c0-2,0-4,0-6a8.75,8.75,0,0,0-.37-2.87.7.7,0,0,1,0-.29.3.3,0,0,1,.29-.27c.91,0,1.83,0,2.86,0-.27.54,0,1-.07,1.53,0,.18-.08.38.1.53A9.75,9.75,0,0,0,86,12.05c.3,0,.42-.12.41-.41h0c.19,0,.41.15.49-.16H88.6a2.9,2.9,0,0,1,1.83,2.79c-.05,2.09,0,4.18,0,6.27,0,.75.16,1.5.22,2.26,0,.21.24.34.15.56s.06.39-.12.59c-1,0-2,0-3.06,0-.31,0-.25-.22-.27-.39l.21-1c.3-.09.16-.35.16-.52q0-3.19,0-6.37c0-.27,0-.54,0-.81s0-.21-.2-.14a1.84,1.84,0,0,0-2.78-.59c-.13.12-.09.27-.09.41,0,2.15,0,4.31,0,6.46C84.67,21.19,84.63,21.34,84.75,21.46Z"/><path class="cls-3" d="M59.87,13.23a10.18,10.18,0,0,0-.48-1.54,1.15,1.15,0,0,1,.75-.2,8.86,8.86,0,0,1,1.55,0c.31.07.67-.17.93.14v2c.58-.59.91-1.27,1.44-1.77a2.71,2.71,0,0,0,1-.1l-.63-.17a2.77,2.77,0,0,1,2.88.33,2.59,2.59,0,0,1,.91,1.38,5.61,5.61,0,0,1,.17,1.35c0,2.3,0,4.59,0,6.89V22.7c0,.12,0,.27.16.28a3.12,3.12,0,0,1,.3.89,1.38,1.38,0,0,1-.27.08H65.4l-.09-.38,0-.1a1.41,1.41,0,0,0,.38-.94c0-.57,0-1.13,0-1.7v-5c0-.16.08-.36-.11-.48A1.26,1.26,0,0,0,64.8,14a1.63,1.63,0,0,0-1.56-.1c-.19.1-.35.19-.55.07a.77.77,0,0,0,0,.47c0,1.9,0,3.79,0,5.69a9.61,9.61,0,0,0,.46,3.28.88.88,0,0,1,0,.23.4.4,0,0,1-.41.3c-.91,0-1.83,0-2.75,0-.3,0-.39-.12-.38-.39,0-.62.25-1.21.32-1.82a.46.46,0,0,0,.08-.36v-7.8A.46.46,0,0,0,59.87,13.23Z"/><path class="cls-3" d="M212.26,13.22a17.17,17.17,0,0,1,.2,1.74c0,2.2,0,4.4,0,6.6,0,.38,0,.76,0,1.14,0,.13,0,.27.17.28,0,.11,0,.21,0,.31v.59c-1.08.16-2.13,0-3.19.09l-.09-.4v-.1a1.35,1.35,0,0,0,.39-.9c0-.58,0-1.16,0-1.74v-5c0-.16.08-.36-.12-.48a4.45,4.45,0,0,1-.19-.51,1.6,1.6,0,0,0-2.23-.84c-.13.07-.3.25-.44,0a.74.74,0,0,0-.09.52v4.84a13.59,13.59,0,0,0,.39,4.26c0,.27-.06.4-.37.39-.9,0-1.81,0-2.72,0-.3,0-.39-.12-.38-.39,0-.68.31-1.31.31-2,.12-.11.09-.26.09-.4V14.11c0-.14,0-.29-.09-.41l-.48-2c.11-.06.22-.17.33-.18a10.89,10.89,0,0,1,2,0c.31.05.67-.19.93.14v2c.58-.59.91-1.27,1.44-1.77a2.66,2.66,0,0,0,1-.1l-.62-.17a2.6,2.6,0,0,1,3.21.75A1.74,1.74,0,0,0,212.26,13.22Z"/><path class="cls-3" d="M102.1,21.5a5.26,5.26,0,0,1-3.47,2.59A3.68,3.68,0,0,1,94.81,23c.08-.25-.18-.43-.11-.72a.3.3,0,0,1-.38,0c-.58-.51-.6-1.29-.92-1.92.24-.28-.13-.46-.1-.69.1-.84-.32-1.64-.21-2.48A6.67,6.67,0,0,1,95,12.73a4.94,4.94,0,0,1,1.72-1.08,4.39,4.39,0,0,1,4.49.71c0,.34,0,.62.48.48a7.41,7.41,0,0,1,1.43,3.64v2.31c-.25.52-.15,1.14-.5,1.62C102.07,20.63,102.1,21.07,102.1,21.5ZM96,15.25c0,.12-.15.14-.14.31,0,.49,0,1-.06,1.47a8.18,8.18,0,0,0,.2,2.42,1,1,0,0,0,.36.87,4.06,4.06,0,0,0,.81,1.15c.25.27.47.62.93.59.29.31.62.2.94.07s.43-.48.61-.75a7.18,7.18,0,0,0,.64-1.84,8,8,0,0,0,0-2.68L100,15.64c0-.35.08-.72-.37-.88-.29-.84-1.08-1.12-1.76-1.51-.48.25-1.14.27-1.33.95C96,14.35,96.06,14.84,96,15.25Z"/><path class="cls-3" d="M159.61,20.32a4.09,4.09,0,0,1-.68,1.56,6.94,6.94,0,0,1-2.39,1.89.94.94,0,0,0-1,.37,4.39,4.39,0,0,1-2.13-.1,2.71,2.71,0,0,1-1.12-.63,9.41,9.41,0,0,1-1.18-1.26,12.91,12.91,0,0,1-.71-1.69,2.78,2.78,0,0,1-.23-1.48V16.86a4.67,4.67,0,0,1,.82-2.74,6.15,6.15,0,0,1,2.25-2.28,4,4,0,0,1,3.06-.42l.11.08h0a1.12,1.12,0,0,0,.93.42,4.2,4.2,0,0,1,2.38,2.73,9.6,9.6,0,0,1,.41,4A5.23,5.23,0,0,0,159.61,20.32ZM154,13.62h0c-.08,0-.2,0-.13.13l0,0-.13-.07h0c-.4.06-.22.38-.27.6s-.19.23-.21.39c-.53.33-.38.85-.37,1.33v.1c-.11.24-.63.49,0,.74a8.8,8.8,0,0,0,.57,3.58,2.68,2.68,0,0,0,2.44,1.7.59.59,0,0,0,.41-.19c.16,0,.34,0,.41-.23a3.63,3.63,0,0,0,.28-.92c.19-.5.19-1.05.42-1.54a18.22,18.22,0,0,0,.06-2.86c0-.07-.1,0-.16,0a5.29,5.29,0,0,0-1.3-2.5,1.52,1.52,0,0,0-1.88-.35Z"/><path class="cls-3" d="M49.78,12.36c.18-.31.52-.38.8-.53a3.62,3.62,0,0,1,3.17-.33,4.63,4.63,0,0,1,3.14,2.87c0,.17,0,.34,0,.52a1.7,1.7,0,0,0,.36,1,8,8,0,0,1,.19,2.68,5.49,5.49,0,0,0-.55,1.72,3.69,3.69,0,0,1-.67,1.55,5.91,5.91,0,0,1-2.11,1.71,1.63,1.63,0,0,0-1.26.56A4,4,0,0,1,50.7,24,3.28,3.28,0,0,1,49,22.92a7.75,7.75,0,0,1-1.32-2.57A6.7,6.7,0,0,1,47.49,19V16.86a5.73,5.73,0,0,1,1.06-3.16c.15-.23.19-.53.47-.67.07,0,.18,0,.13-.14l0,0C49.58,12.94,49.72,12.69,49.78,12.36Zm4.82,6.81c.16,0,.17-.16.17-.29V17.11c0-.12,0-.22-.17-.23,0-.55-.35-1-.41-1.55a.94.94,0,0,0-.58-1.14l-.37-.37a1.35,1.35,0,0,0-1.64-.54c-.08,0-.06.13-.06.21a.56.56,0,0,0-.48.24,9,9,0,0,0-.69,1.39c-.26.55-.11,1.17-.3,1.73a2.85,2.85,0,0,0,0,1.56,7.51,7.51,0,0,0,.58,1.89A5,5,0,0,0,52.07,22a1.23,1.23,0,0,0,1.47,0c.14,0,.29,0,.38-.12a2.91,2.91,0,0,0,.46-1.3Z"/><path class="cls-3" d="M74.14,11.79l0,.11c-.38.53-.1,1.12-.17,1.68,0,.1.08.17.17.21.33,1.08.66,2.17,1,3.25.15.5.31,1,.5,1.6l.63-2.34c.28-.2.49-.42.26-.79l0-.15c.09,0,.09-.14.08-.23.13-.57.27-1.13.4-1.7.09.07.17.17.17-.06V12c0-.32.14-.53.47-.53H80l.09.4c0,.34-.22.59-.35.86a28.5,28.5,0,0,0-1,3,1.13,1.13,0,0,0-.36,1.16c-.17.3-.09.67-.29,1-.46.21-.26.62-.29,1h0l0,.05a8,8,0,0,1-.49,1.73C76.9,21.8,76.48,23,76,24.18a11.4,11.4,0,0,1-1,2.2,4.88,4.88,0,0,1-.84,1.23c-.36,0-.58.37-.93.38-.65,0-1.29,0-1.94,0-.23,0-.31-.1-.3-.31a19.47,19.47,0,0,0,1.21-1.54,15.81,15.81,0,0,0,1.34-2.33,6.26,6.26,0,0,1,.56-1.37.27.27,0,0,0,0-.27,37.61,37.61,0,0,1-1.42-3.89,57.93,57.93,0,0,0-2.5-6.49c0-.31.21-.29.43-.29.92,0,1.85,0,2.78,0A.74.74,0,0,1,74.14,11.79Z"/><path class="cls-3" d="M200.9,6.32c-.11.7-.22,1.4-.32,2.1-.18-.15-.18,0-.18.11,0,.7,0,1.41,0,2.12,0,3.17,0,6.34,0,9.51a13.26,13.26,0,0,0,.57,3.59.83.83,0,0,1-.71.21c-1.09,0-2.18,0-3.29,0l0-.48c.13-.75.25-1.5.38-2.26a3,3,0,0,0,0-.42v-10a11.8,11.8,0,0,0-.08-1.46,5,5,0,0,0,.06-1.49c0-.08-.08-.12-.16-.14a6.64,6.64,0,0,1-.3-1.32c.06-.32.23-.42.57-.41.93,0,1.87,0,2.8,0C200.56,5.93,200.8,6,200.9,6.32Z"/><path class="cls-3" d="M180.07,14.18l-.08-.07-.1-.11a2.28,2.28,0,0,0-2-.58,1.33,1.33,0,0,0-1,1.6,5.65,5.65,0,0,0,.5,1,1.36,1.36,0,0,0,1.17.87c.31.51.92.68,1.3,1.15a4.11,4.11,0,0,1,.74,3.37,4.25,4.25,0,0,1-.83,1.76,1.22,1.22,0,0,1-.55.43,8.69,8.69,0,0,1-1.54.58h-2.51c-.48,0-.91-.21-1.4-.21V20.46a4.55,4.55,0,0,0,2.09,1.79,1.37,1.37,0,0,0,1.41,0s0-.13-.07-.19a1.54,1.54,0,0,0-.26-2.46,9.83,9.83,0,0,1-2.28-2,1.87,1.87,0,0,1-.53-1.21c0-.75,0-1.5,0-2.24a3.15,3.15,0,0,1,2-2.39c.26-.07.6.19.78-.2h0c.29-.07.64.17.88-.18h.59c0,.19.16.17.28.17h1l.18,0c0,.05-.24.13,0,.16s.49.27.48.62,0,1,0,1.48C180.28,14,180.33,14.15,180.07,14.18Z"/><path class="cls-3" d="M221.66,21.58c.39-.18.86-.09,1.22-.37.07-.06.23,0,.15.21a12.17,12.17,0,0,1-.69,1.65c-.1.18,0,.42-.19.52a1.19,1.19,0,0,1-1,.41s-.06.09-.1.14a7.57,7.57,0,0,1-1.34.11.76.76,0,0,1-.49-.11c0-.16-.07-.23-.24-.19a2,2,0,0,1-.8-.06,4.65,4.65,0,0,1-1.74-1.17,7.18,7.18,0,0,1-1.13-1.85,6.82,6.82,0,0,1-.39-2.82,4.48,4.48,0,0,1,.06-1.46,9.75,9.75,0,0,1,.8-2.41,6.47,6.47,0,0,1,2.81-2.35,5.25,5.25,0,0,1,3.54-.36l.08,0c.15.36.57,0,.77.34v1.86l0,.69c-.28.11-.38-.34-.66-.21l-1.23-.59a1.71,1.71,0,0,0-1.51,0s0,.09,0,.13a3.21,3.21,0,0,0-1,.7h-.11l0,0h0v.12a.08.08,0,0,1,0,0c-.3.14-.66.25-.46.72a4.14,4.14,0,0,0-.28.84c-.13.08-.11.22-.11.34,0,.56,0,1.12,0,1.69a8.48,8.48,0,0,0,.2,1.1,2.63,2.63,0,0,0,2.23,2.23c.15,0,.28.13.44.12A.72.72,0,0,0,221.66,21.58Zm-1.31.23,0,0h0l0,0Z"/><path class="cls-3" d="M108.32,13.82c0,.17.09.18.17,0s.23-.43.34-.65a.47.47,0,0,0,.36-.57h0c.21,0,.2-.15.19-.29l.1-.1c.42,0,.51-.25.57-.57.49-.29,1-.57,1.55-.21.15.09.41,0,.61,0a.46.46,0,0,1,.5.52,18.62,18.62,0,0,1-.56,2.75c-.28-.07-.39-.31-.57-.45a2.14,2.14,0,0,0-2.61-.21,1.05,1.05,0,0,0-.64,1.2c-.12.12-.09.27-.09.41v5.36c0,.14,0,.29.09.41.26.32,0,.72.17,1.08a2.71,2.71,0,0,1,.32,1.19c0,.27-.25.19-.41.19h-2.15c-.88,0-.88,0-.89-.88.4-2.95.1-5.9.19-8.85,0-.24,0-.48,0-.72a2.37,2.37,0,0,0-.07-1.32l.16-.07a.43.43,0,0,1-.25-.55.48.48,0,0,1,.14-.05l1.53,0c1.22,0,1.19-.05,1.19,1.21C108.24,13.08,108.08,13.46,108.32,13.82Z"/><path class="cls-3" d="M182.12,27.36c1.2-2.71,2-5.43,1.45-8.37H187a21.73,21.73,0,0,1-2.92,8.37Z"/><path class="cls-3" d="M225.5,22.11A2.29,2.29,0,0,1,226.71,20a1.91,1.91,0,0,1,2.2.93,3.17,3.17,0,0,1-.65,3,1.48,1.48,0,0,1-1.77.05A2,2,0,0,1,225.5,22.11Z"/><path class="cls-4" d="M108.32,13.82c-.24-.36-.08-.74-.08-1.11,0-1.26,0-1.22-1.19-1.21l-1.53,0a.48.48,0,0,0-.14.05.43.43,0,0,0,.25.55l-.16.07a2.37,2.37,0,0,1,.07,1.32L105,11.42h3.29Z"/><path class="cls-4" d="M209.67,15.33c.2.12.11.32.12.48v5c0,.58,0,1.16,0,1.74a1.35,1.35,0,0,1-.39.9,2.64,2.64,0,0,1,.18-1,6.19,6.19,0,0,0,.1-1.55C209.68,19.08,209.68,17.21,209.67,15.33Z"/><path class="cls-4" d="M65.59,15.34c.19.12.11.32.11.48v5c0,.57,0,1.13,0,1.7a1.41,1.41,0,0,1-.38.94,2.43,2.43,0,0,1,.17-1A6.19,6.19,0,0,0,65.6,21C65.6,19.09,65.6,17.21,65.59,15.34Z"/><path class="cls-4" d="M59.87,13.23a.46.46,0,0,1,.08.36v7.8a.46.46,0,0,1-.08.36Z"/><path class="cls-4" d="M87.53,14.77c.15-.07.2,0,.2.14s0,.54,0,.81q0,3.18,0,6.37c0,.17.14.43-.16.52a1,1,0,0,0,.08-.55c0-1.95,0-3.89,0-5.83A5.11,5.11,0,0,0,87.53,14.77Z"/><path class="cls-4" d="M204,13.7c.12.12.09.27.09.41v7.06c0,.14,0,.29-.09.4Z"/><path class="cls-4" d="M168.22,14.94c.37,0,.17.24.17.35q0,3.11,0,6.21a1.73,1.73,0,0,1-.07.93c0-2.3,0-4.6,0-6.89A1.35,1.35,0,0,0,168.22,14.94Z"/><path class="cls-4" d="M84.75,21.46c-.12-.12-.08-.27-.08-.41,0-2.15,0-4.31,0-6.46,0-.14,0-.29.09-.41Z"/><path class="cls-4" d="M165.41,21.47c-.11-.1-.08-.24-.08-.36V14.83a.46.46,0,0,1,.08-.36Z"/><path class="cls-4" d="M80.08,11.9,80,11.5H77.66c-.33,0-.47.21-.47.53v1.33c0,.23-.08.13-.17.06a9,9,0,0,0,.06-2h3.26A.59.59,0,0,1,80.08,11.9Z"/><path class="cls-4" d="M165.42,13.6c-.15.06-.12-.1-.12-.12.17-.53-.11-1.06,0-1.6.05-.22-.18-.38-.44-.38h-2.29c-.23,0-.32.1-.32.31-.15-.09-.06-.26-.15-.39h3.31Z"/><path class="cls-4" d="M84.77,13.6c-.18-.15-.12-.35-.1-.53,0-.5-.2-1,.07-1.53-1-.07-1.95,0-2.86,0a.3.3,0,0,0-.29.27c-.16-.08,0-.25-.15-.38h3.33Z"/><path class="cls-4" d="M108.32,21.49c-.13-.12-.09-.27-.09-.41V15.72c0-.14,0-.29.09-.41Z"/><path class="cls-4" d="M200.9,6.32c-.1-.34-.34-.39-.68-.38-.93,0-1.87,0-2.8,0-.34,0-.51.09-.57.41-.18-.12,0-.34-.17-.48H201C201.14,6.07,201,6.18,200.9,6.32Z"/><path class="cls-4" d="M209.4,23.57l.09.4c1.06-.06,2.11.07,3.19-.09v-.59c.3.16.13.49.31.74h-3.78C209.28,23.87,209.27,23.7,209.4,23.57Z"/><path class="cls-4" d="M32.18,18.42c.26,0,.31.16.36.35a5.68,5.68,0,0,0,.66,1.56,1.11,1.11,0,0,1,.11.58,5.24,5.24,0,0,1-.58-1.16l0,0,0,0A8.65,8.65,0,0,1,32.18,18.42Z"/><path class="cls-4" d="M196.93,23.48l0,.48c1.11,0,2.2,0,3.29,0a.83.83,0,0,0,.71-.21c.16.2.13.31-.15.31h-4C196.69,23.81,196.86,23.66,196.93,23.48Z"/><path class="cls-4" d="M105.36,23.08c0,.88,0,.88.89.88h2.15c.16,0,.37.08.41-.19.17.2.13.3-.14.3h-3.19l-.41,0Z"/><path class="cls-4" d="M74.14,11.79a.74.74,0,0,0-.65-.3c-.93,0-1.86,0-2.78,0-.22,0-.43,0-.43.29L70,11.43h4.16C74.23,11.55,74.28,11.68,74.14,11.79Z"/><path class="cls-4" d="M81.6,23.56c.07.23.19.4.46.4h2.88c.18-.2.08-.4.12-.58a1.32,1.32,0,0,1,.17.66h-3.7C81.52,23.87,81.42,23.7,81.6,23.56Z"/><path class="cls-4" d="M146.84,9.7c.25,0,.29-.21.29-.42,0-.82,0-1.65,0-2.47a.46.46,0,0,0-.26-.41c-.11-.08-.31,0-.31-.25l.65.22V10C147,10,146.94,9.81,146.84,9.7Z"/><path class="cls-4" d="M43.38,10.18c.31,0,.28-.22.28-.43,0-.74,0-1.48,0-2.22V6.15s.08.06.08.09v4.18C43.53,10.45,43.47,10.29,43.38,10.18Z"/><path class="cls-4" d="M71.06,27.68c0,.21.07.32.3.31.65,0,1.29,0,1.94,0,.35,0,.57-.37.93-.38a1,1,0,0,1-1,.48c-.85,0-1.71,0-2.65,0Z"/><path class="cls-4" d="M62.62,11.68c-.26-.31-.62-.07-.93-.14a8.86,8.86,0,0,0-1.55,0,1.15,1.15,0,0,0-.75.2l-.06-.28h3C62.55,11.4,62.69,11.43,62.62,11.68Z"/><path class="cls-4" d="M87.35,23.57c0,.17,0,.4.27.39,1,0,2.06,0,3.06,0,.18-.2.08-.41.12-.59A1.37,1.37,0,0,1,91,24h-3.7C87.27,23.87,87.17,23.71,87.35,23.57Z"/><path class="cls-4" d="M203.64,23.57c0,.27.08.4.38.39.91,0,1.82,0,2.72,0,.31,0,.39-.12.37-.39l.21.47h-3.88Z"/><path class="cls-4" d="M59.55,23.57c0,.27.08.4.38.39.92,0,1.84,0,2.75,0a.4.4,0,0,0,.41-.3c.07.11.17.2.07.36H59.35Z"/><path class="cls-4" d="M162.27,23.56c0,.27.1.4.39.4.92,0,1.85,0,2.77,0,.25,0,.27-.16.36-.3.07.11.17.2.08.37H162.2C162.19,23.86,162.09,23.7,162.27,23.56Z"/><path class="cls-4" d="M93.09,17.24c-.11.84.31,1.64.21,2.48,0,.23.34.41.1.69A8.83,8.83,0,0,1,93,17.35S93.06,17.28,93.09,17.24Z"/><path class="cls-4" d="M65.31,23.57l.09.38h3.18a1.38,1.38,0,0,0,.27-.08c.13.16.05.19-.12.19H65.12C65.19,23.87,65.18,23.7,65.31,23.57Z"/><path class="cls-4" d="M223,13.71V11.85c-.2-.3-.62,0-.77-.34.32-.07.6.12.94.1A9.72,9.72,0,0,1,223,13.71Z"/><path class="cls-4" d="M206.71,11.68c-.26-.33-.62-.09-.93-.14a10.89,10.89,0,0,0-2,0c-.11,0-.22.12-.33.18l-.05-.28h3C206.64,11.4,206.78,11.43,206.71,11.68Z"/><path class="cls-4" d="M180.07,14.18c.26,0,.21-.23.21-.4,0-.49,0-1,0-1.48s-.1-.57-.48-.62,0-.11,0-.16l.56.11v2.81A.5.5,0,0,1,180.07,14.18Z"/><path class="cls-4" d="M140.25,21.47c.26.05.19.23.19.4,0,.6,0,1.21,0,1.83a2.09,2.09,0,0,1,1,.46,8.2,8.2,0,0,1-1.13-.33A20.41,20.41,0,0,0,140.25,21.47Z"/><path class="cls-4" d="M168,23.57c0,.36.21.4.5.39,1,0,2.09,0,3.13,0,0,.08-.06.1-.13.1H168C167.94,23.87,167.84,23.71,168,23.57Z"/><path class="cls-4" d="M44.8,23.18c-.33-.51-.13-1.09-.19-1.64,0-.09,0-.15.09-.17.07.42.16.85.19,1.27C44.91,22.81,45,23,44.8,23.18Z"/><path class="cls-4" d="M159.61,20.32a5.23,5.23,0,0,1,.54-1.72,4.46,4.46,0,0,1-.33,1.53C159.79,20.21,159.77,20.36,159.61,20.32Z"/><path class="cls-4" d="M56.9,20.32a5.49,5.49,0,0,1,.55-1.72,4.71,4.71,0,0,1-.33,1.53C57.09,20.21,57.07,20.36,56.9,20.32Z"/><path class="cls-4" d="M140,8.24c-.18.57-.08,1.21-.45,1.73A2.59,2.59,0,0,1,140,8.24Z"/><path class="cls-4" d="M221.66,21.58a.72.72,0,0,1-1.14,0Z"/><path class="cls-4" d="M57.26,15.92a1.7,1.7,0,0,1-.36-1c0-.18,0-.35,0-.52A3.61,3.61,0,0,1,57.26,15.92Z"/><path class="cls-4" d="M35.13,16c-.17,0-.12-.11-.12-.2a11.77,11.77,0,0,0,0-1.68c0-.16,0-.28.21-.3a6.51,6.51,0,0,0-.08,1.65C35.13,15.64,35.13,15.81,35.13,16Z"/><path class="cls-4" d="M31.8,15.35c.36.27.11.67.19,1a3,3,0,0,1,0,.9A7.2,7.2,0,0,1,31.8,15.35Z"/><path class="cls-4" d="M36,10.73c0-.57.32-1,.74-1A7.36,7.36,0,0,1,36,10.73Z"/><path class="cls-4" d="M43.29,23.75a1.76,1.76,0,0,1,1.44-.55A6.79,6.79,0,0,1,43.29,23.75Z"/><path class="cls-4" d="M177.22,22c0,.06.09.17.07.19a1.37,1.37,0,0,1-1.41,0C176.33,22.18,176.82,22.37,177.22,22Z"/><path class="cls-4" d="M74.12,13.79c-.09,0-.18-.11-.17-.21.07-.56-.21-1.15.17-1.68A7,7,0,0,0,74.12,13.79Z"/><path class="cls-4" d="M146.38,23c0-.57.16-.7.77-.76A4,4,0,0,1,146.38,23Z"/><path class="cls-4" d="M178.58,16.87a1.36,1.36,0,0,1-1.17-.87Z"/><path class="cls-4" d="M200.4,10.65c0-.71,0-1.42,0-2.12,0-.15,0-.26.18-.11a8,8,0,0,0-.09,1.69C200.48,10.29,200.58,10.5,200.4,10.65Z"/><path class="cls-4" d="M52.86,24.14a1.63,1.63,0,0,1,1.26-.56A3.25,3.25,0,0,1,52.86,24.14Z"/><path class="cls-4" d="M175.19,24.16h2.51a7,7,0,0,1-1.89.08C175.61,24.25,175.37,24.35,175.19,24.16Z"/><path class="cls-4" d="M122.57,15c.34,0,.43.16.41.47s-.34.27-.57.29c.12-.12.32-.18.38-.39Z"/><path class="cls-4" d="M88.6,11.49H87A1.85,1.85,0,0,1,88.6,11.49Z"/><path class="cls-4" d="M146.38,6.13c-.45-.06-1,.19-1.34-.28A3.65,3.65,0,0,1,146.38,6.13Z"/><path class="cls-4" d="M44.62,18.52c0-.55,0-1.1,0-1.65,0-.14-.07-.33.17-.37C44.61,17.16,44.84,17.86,44.62,18.52Z"/><path class="cls-4" d="M102.1,21.5c0-.43,0-.87.47-1.09A2.72,2.72,0,0,1,102.1,21.5Z"/><path class="cls-4" d="M103.07,18.79V16.48A6.19,6.19,0,0,1,103.07,18.79Z"/><path class="cls-4" d="M38.39,24.16h2.32A6,6,0,0,1,38.39,24.16Z"/><path class="cls-4" d="M39.81,5.77c0,.22-.2.16-.33.16-.37,0-.73,0-1.09,0A3.25,3.25,0,0,1,39.81,5.77Z"/><path class="cls-4" d="M64.42,11.61l.63.17a2.71,2.71,0,0,1-1,.1C64.07,11.64,64.26,11.64,64.42,11.61Z"/><path class="cls-4" d="M47.48,16.86V19A4.74,4.74,0,0,1,47.48,16.86Z"/><path class="cls-4" d="M150.19,16.86V19A4.6,4.6,0,0,1,150.19,16.86Z"/><path class="cls-4" d="M78.36,16.87a1.13,1.13,0,0,1,.36-1.16A4.23,4.23,0,0,1,78.36,16.87Z"/><path class="cls-4" d="M208.51,11.61l.62.17a2.66,2.66,0,0,1-1,.1C208.16,11.64,208.35,11.64,208.51,11.61Z"/><path class="cls-4" d="M219.58,13.68s0-.11,0-.13a1.71,1.71,0,0,1,1.51,0,7.81,7.81,0,0,0-1-.1A1,1,0,0,0,219.58,13.68Z"/><path class="cls-4" d="M174.14,14.08c0,.74,0,1.49,0,2.24A5.45,5.45,0,0,1,174.14,14.08Z"/><path class="cls-4" d="M35.6,18l-.23.14c.17-.42-.33-.71,0-1.08A3.74,3.74,0,0,1,35.6,18Z"/><path class="cls-4" d="M141.47,24.16h2.13A5.1,5.1,0,0,1,141.47,24.16Z"/><path class="cls-4" d="M217.65,18.13c0-.57,0-1.13,0-1.69,0-.12,0-.26.11-.34,0,.54,0,1.07,0,1.6C217.73,17.84,217.82,18,217.65,18.13Z"/><path class="cls-4" d="M32.44,12c0,.17-.08.27-.26.26a3.72,3.72,0,0,1,.37-1.06,1.72,1.72,0,0,1-.08.78l-.06,0Z"/><path class="cls-4" d="M128.43,6.15a4,4,0,0,1-1.22-.38C127.64,5.81,128.1,5.77,128.43,6.15Z"/><path class="cls-4" d="M121.45,8.9c0,.35.07.72-.27,1A1.13,1.13,0,0,1,121.45,8.9Z"/><path class="cls-4" d="M222.33,14.19c.28-.13.38.32.66.21,0,.12.06.25-.07.38A2.75,2.75,0,0,1,222.33,14.19Z"/><path class="cls-4" d="M139.46,10.73c0,.58,0,1.16,0,1.75A3,3,0,0,1,139.46,10.73Z"/><path class="cls-4" d="M218.22,23.89a2,2,0,0,0,.8.06c.17,0,.23,0,.24.19C218.9,24.12,218.51,24.19,218.22,23.89Z"/><path class="cls-4" d="M221.09,24.14c0-.05.07-.14.1-.14a1.19,1.19,0,0,0,1-.41c-.05.32-.19.51-.56.48A1.77,1.77,0,0,0,221.09,24.14Z"/><path class="cls-4" d="M197.15,7.66c.08,0,.17.06.16.14a5,5,0,0,1-.06,1.49A8.93,8.93,0,0,0,197.15,7.66Z"/><path class="cls-4" d="M110,11.69c-.06.32-.15.61-.57.57C109.67,12.08,109.69,11.72,110,11.69Z"/><path class="cls-4" d="M45.13,15.23c-.19-.21-.56.08-.7-.26L45,15C45.22,15,45.27,15,45.13,15.23Z"/><path class="cls-4" d="M68.55,23c-.2,0-.16-.16-.16-.28V21.56C68.57,22,68.42,22.52,68.55,23Z"/><path class="cls-4" d="M212.64,23c-.19,0-.17-.15-.17-.28,0-.38,0-.76,0-1.14C212.66,22,212.51,22.52,212.64,23Z"/><path class="cls-4" d="M155.56,24.14a.94.94,0,0,1,1-.37A2.84,2.84,0,0,1,155.56,24.14Z"/><path class="cls-4" d="M77.78,18.79c0-.34-.17-.75.29-1A2.33,2.33,0,0,1,77.78,18.79Z"/><path class="cls-4" d="M144.84,19s.13,0,.13.05c0,.5.22,1-.13,1.48A3,3,0,0,0,144.84,19Z"/><path class="cls-4" d="M179.62,11.49h-1c-.12,0-.26,0-.28-.17A5.22,5.22,0,0,1,179.62,11.49Z"/><path class="cls-4" d="M212.26,13.22a1.74,1.74,0,0,1-.54-.86A1.25,1.25,0,0,1,212.26,13.22Z"/><path class="cls-4" d="M94.32,22.33a.3.3,0,0,0,.38,0c-.07.29.19.47.11.72C94.69,22.75,94.38,22.63,94.32,22.33Z"/><path class="cls-4" d="M171.54,23.59c-.26,0-.28-.18-.26-.38s0-.34,0-.51A2.18,2.18,0,0,1,171.54,23.59Z"/><path class="cls-4" d="M129.8,20.69a.8.8,0,0,1-.68-.67Z"/><path class="cls-4" d="M76.51,15.51c.23.37,0,.59-.26.79Z"/><path class="cls-4" d="M101.64,12.84c-.47.14-.5-.14-.48-.48A2,2,0,0,1,101.64,12.84Z"/><path class="cls-4" d="M157.36,11.91a1.12,1.12,0,0,1-.93-.42A2.31,2.31,0,0,1,157.36,11.91Z"/><path class="cls-4" d="M119,19.93v1.55A2.73,2.73,0,0,1,119,19.93Z"/><path class="cls-4" d="M49.78,12.36c-.06.33-.2.58-.6.5Z"/><path class="cls-4" d="M130.27,15.74c.37.13.42.42.38.76A2.17,2.17,0,0,1,130.27,15.74Z"/><path class="cls-4" d="M218,15.26c-.2-.47.16-.58.46-.72Z"/><path class="cls-4" d="M143.68,8.61c.36-.34.75-.19,1.14-.07A4.38,4.38,0,0,0,143.68,8.61Z"/><path class="cls-4" d="M176.92,11.49c-.18.39-.52.13-.78.2C176.36,11.44,176.65,11.52,176.92,11.49Z"/><path class="cls-4" d="M177.79,11.32c-.24.35-.59.11-.88.18A1.91,1.91,0,0,1,177.79,11.32Z"/><path class="cls-4" d="M126,16.41c-.47.14-.3-.22-.34-.42A.74.74,0,0,1,126,16.41Z"/><path class="cls-4" d="M86.43,11.64c0,.29-.11.44-.41.41C86.14,11.91,86.19,11.68,86.43,11.64Z"/><path class="cls-4" d="M109.19,12.64a.47.47,0,0,1-.36.57A1.9,1.9,0,0,1,109.19,12.64Z"/><path class="cls-4" d="M41.24,8.81h.61l-.1.22C41.58,9,41.38,9,41.24,8.81Z"/><path class="cls-4" d="M87,11.49c-.08.31-.3.19-.49.16C86.59,11.46,86.79,11.51,87,11.49Z"/><path class="cls-4" d="M40.68,8.63c.19,0,.4-.08.5.17A.69.69,0,0,1,40.68,8.63Z"/><path class="cls-4" d="M126.35,16.86c-.24,0-.37-.06-.23-.32C126.25,16.61,126.36,16.7,126.35,16.86Z"/><path class="cls-4" d="M109.37,12.36c0,.14,0,.29-.19.29A.3.3,0,0,1,109.37,12.36Z"/><path class="cls-4" d="M76.62,15.13c0,.09,0,.18-.08.23S76.5,15.17,76.62,15.13Z"/><path class="cls-4" d="M121.15,10.07l.06,0-.12,0Z"/><path class="cls-4" d="M49.14,12.89c0,.14-.06.12-.13.14Z"/><path class="cls-4" d="M179.89,14l.1.11Z"/><path class="cls-4" d="M35.31,16.9l-.08-.15A.11.11,0,0,1,35.31,16.9Z"/><path class="cls-4" d="M77.76,18.86l0-.05h0A.07.07,0,0,1,77.76,18.86Z"/><path class="cls-4" d="M156.43,11.5l-.11-.08C156.39,11.4,156.42,11.44,156.43,11.5Z"/><path class="cls-4" d="M218.51,14.49v-.12h.1Z"/><path class="cls-4" d="M126.1,16.52c-.08,0-.11,0-.07-.08Z"/><path class="cls-5" d="M155.22,37.51c1.46.86,2,2.41,3.08,3.7h-2.15c-.2,0-.29-.14-.39-.28-.57-.77-1.07-1.58-1.68-2.32a2.41,2.41,0,0,0-2.43-1v3.58h-1.8V32.64c.13-.11.29,0,.44,0,1.53,0,3.07-.05,4.6,0a2.51,2.51,0,0,1,2.44,1.52,2.43,2.43,0,0,1-.2,2.13,2.13,2.13,0,0,1-1.51,1c-.09,0-.2,0-.27.08Zm-3.56-1.27a25.25,25.25,0,0,0,2.91-.1c.48-.08.86-.35.89-.73,0-.71-.28-1.34-.79-1.37-1,0-2,0-3,0Z"/><path class="cls-5" d="M90.15,41.19H88.33V32.66c.11-.13.27-.07.4-.07q2.37,0,4.74,0A2.67,2.67,0,0,1,96,34.42a2.35,2.35,0,0,1-1.49,2.75c-.29.11-.6.17-.93.26,1.59.79,2.16,2.42,3.24,3.79H94.66a.48.48,0,0,1-.41-.28l-1.66-2.33a2.67,2.67,0,0,0-2.44-1Zm0-4.95a25.76,25.76,0,0,0,2.93-.1.92.92,0,0,0,.87-.81c0-.7-.31-1.27-.83-1.29-1,0-2,0-3,0Z"/><path class="cls-5" d="M43,32.59c1.78,0,3.54-.06,5.29,0a2.48,2.48,0,0,1,2,1.17,2.36,2.36,0,0,1-1.27,3.4l-.9.25c1.58.82,2.22,2.39,3.25,3.77H49.29c-.19,0-.26-.15-.36-.28-.55-.78-1.1-1.56-1.67-2.33a2.74,2.74,0,0,0-2.44-1v3.63H43Zm1.8,3.65c1-.06,1.94,0,2.89-.09.48-.07.8-.25.91-.66a1,1,0,0,0-.55-1.32c-.08,0-.17-.12-.25-.12h-3Z"/><path class="cls-5" d="M58.81,41.31a5.07,5.07,0,0,1-2.8-.58,3.05,3.05,0,0,1-1.15-1.16,4.62,4.62,0,0,1-.75-2.92c.31-2.29.87-3.5,3.29-4a5,5,0,0,1,4.24.76,3.68,3.68,0,0,1,1.47,2.37,5.46,5.46,0,0,1-.67,4,2.07,2.07,0,0,1-.73.74A4.61,4.61,0,0,1,58.81,41.31ZM61.19,37c0-.16,0-.32,0-.48A2.27,2.27,0,0,0,59.13,34a2.38,2.38,0,0,0-2.21.64,3.19,3.19,0,0,0-.78,3,3.3,3.3,0,0,0,.43,1.27,2.6,2.6,0,0,0,3.66.43A2.26,2.26,0,0,0,61.19,37Z"/><path class="cls-5" d="M140.92,37.37v2.29h5.27v1.52H139V32.61h6.92V34h-5v1.89h4.63v1.46Z"/><path class="cls-5" d="M191,39.66h5.2v1.52H189V32.62H196V34h-5v1.92h4.62a7.69,7.69,0,0,1,0,1.44H191Z"/><path class="cls-5" d="M84.65,41.21H77.51V32.62h6.93a8.11,8.11,0,0,1,0,1.4h-5v1.9h4.62a8.83,8.83,0,0,1,0,1.45H79.43v2.3h5.2A9.88,9.88,0,0,1,84.65,41.21Z"/><path class="cls-5" d="M127.73,38.34c.56,0,1.07,0,1.58,0a.41.41,0,0,1,.49.32,1.7,1.7,0,0,0,1,1.14,2.16,2.16,0,0,0,1.44,0c1.24-.42,1.09-.46,1-1.57-1.19-.83-2.68-.76-3.93-1.38a2.18,2.18,0,0,1-1.23-1.74,2,2,0,0,1,1.4-2.3,4.75,4.75,0,0,1,4.28.16c.91.51,1.4,1.11,1.16,2.1h-1.55c-.2,0-.24-.14-.3-.25a1.28,1.28,0,0,0-1.08-.86,3.87,3.87,0,0,0-1.59.07.78.78,0,0,0-.58.73c0,.29.21.48.49.61.94.43,2,.49,2.93.85a4,4,0,0,1,1.73,1.09,2.83,2.83,0,0,1-.28,3,3.25,3.25,0,0,1-1.85.93,11.2,11.2,0,0,1-2.52,0,2.65,2.65,0,0,1-2.16-1.61A5.32,5.32,0,0,1,127.73,38.34Z"/><path class="cls-5" d="M206.73,35.08c-.59,0-1.12,0-1.64,0-.22,0-.3-.12-.38-.28a1.86,1.86,0,0,0-2.15-.9,1.39,1.39,0,0,1-.31.1.68.68,0,0,0-.73.65.91.91,0,0,0,.66.81,18.39,18.39,0,0,0,2.18.57,3.53,3.53,0,0,1,2.28,1.37,2.63,2.63,0,0,1-2.3,3.88,8,8,0,0,1-2.39,0,3.13,3.13,0,0,1-2.56-2.92,9.58,9.58,0,0,0,1.2,0,.76.76,0,0,1,.93.61,1.38,1.38,0,0,0,1.32.93,3.06,3.06,0,0,0,1.53-.21,1.1,1.1,0,0,0,.71-.92c0-.43-.24-.63-.6-.8a3.23,3.23,0,0,0-1.06-.35,9.21,9.21,0,0,1-2.21-.64,2.28,2.28,0,0,1-1.51-2.27,2.2,2.2,0,0,1,1.49-1.9,5.61,5.61,0,0,1,4.11.07A2.43,2.43,0,0,1,206.73,35.08Z"/><path class="cls-5" d="M68.51,41.21H66.69V32.64c.08-.09.2,0,.3,0,1.47,0,2.94-.05,4.41,0a2.82,2.82,0,0,1,2.47,2,2.61,2.61,0,0,1-1.58,3.07,7.51,7.51,0,0,1-2.68.26c-1,0-1,0-1,1,0,.7,0,1.4,0,2.11A.59.59,0,0,1,68.51,41.21Zm.09-4.79c.75,0,1.46,0,2.18,0a1.21,1.21,0,0,0,.57-.19,1,1,0,0,0,.58-1.09,1.06,1.06,0,0,0-.65-.87c-.88-.44-1.78-.12-2.68-.25Z"/><path class="cls-5" d="M34.08,38v3.22H32.2V32.59h1.08c1.09,0,2.17,0,3.26,0a3.19,3.19,0,0,1,2.08.86,2.29,2.29,0,0,1,.68,2.47,2.49,2.49,0,0,1-2.23,2,12.09,12.09,0,0,1-2,.08Zm0-1.52a15.67,15.67,0,0,0,2.48-.12,1,1,0,0,0,.83-.8,1.1,1.1,0,0,0-.63-1.27c-.89-.41-1.77-.1-2.68-.24Z"/><path class="cls-5" d="M185.38,38.59a2.9,2.9,0,0,1-1.07,1.79,4.32,4.32,0,0,1-3.92.88,3.45,3.45,0,0,1-2.62-2,5.42,5.42,0,0,1-.54-3,3.79,3.79,0,0,1,2.14-3.31,5,5,0,0,1,4.76.24,3.21,3.21,0,0,1,1.22,1.76l-1.58.41c-.23.06-.36,0-.48-.26a2.06,2.06,0,0,0-3.51-.34,3.73,3.73,0,0,0-.61,2.93,3.32,3.32,0,0,0,.72,1.6,2.21,2.21,0,0,0,2.78.16,2,2,0,0,0,.8-1.14c0-.21.19-.3.43-.21C184.36,38.25,184.84,38.4,185.38,38.59Z"/><path class="cls-5" d="M160.09,32.58c.63,0,1.22,0,1.81,0,.32,0,.38.21.47.43l2.1,5.58c0,.09.09.17.16.32l2.29-6.3h2c-.3.77-.59,1.49-.88,2.22-.81,2-1.62,4-2.41,6a.44.44,0,0,1-.51.35q-.69,0-1.38,0a.38.38,0,0,1-.42-.29l-1.95-5C161,34.8,160.52,33.71,160.09,32.58Z"/><path class="cls-5" d="M114.17,41.19h-1.91c0-1,0-1.92,0-2.87a2.17,2.17,0,0,0-.42-1.4c-1-1.41-2-2.84-3-4.33H111c.16,0,.23.15.31.27l2,3.07a15,15,0,0,0,1-1.56c.35-.54.69-1.09,1-1.64a.25.25,0,0,1,.26-.14h2c-.56.82-1.06,1.57-1.57,2.31s-1.24,1.77-1.87,2.65a.66.66,0,0,0-.07.45C114.17,39.05,114.17,40.1,114.17,41.19Z"/><path class="cls-5" d="M106.58,34h-2.73v7.15h-1.93V34H99.17V32.62h7.41Z"/><path class="cls-5" d="M173.64,41.19h-1.87V32.62h1.87Z"/><path class="cls-5" d="M24.87,20.14a5.2,5.2,0,0,1,.4,2.4c-.21,1.53-1.1,2.93-2.9,2.75s-3.37-.05-5.06-.09a1.55,1.55,0,0,1-1.09-.38,9.9,9.9,0,0,1-1.07-1.17c-.44-.58-.83-1.2-1.26-1.79S13,20.3,12.46,19.45a15.43,15.43,0,0,0,.92,5.66,5,5,0,0,1-1.53.08c-1.61,0-3.22,0-4.83,0-.27,0-.43-.1-.34-.41.22-.8.41-1.61.65-2.39a4.59,4.59,0,0,0,.21-1.36q0-6,0-12a7.79,7.79,0,0,0-.43-2.27c-.21-.68-.4-1.36-.61-2.07,1.85,0,3.68,0,5.5.12a7.33,7.33,0,0,1,3.15.87,6.28,6.28,0,0,1,1.71,1.62,6.39,6.39,0,0,1,1,1.63,6.84,6.84,0,0,1,.2,4.08,6.89,6.89,0,0,1-1.87,3,.35.35,0,0,0-.06.49c.24.49.47,1,.71,1.48a1.25,1.25,0,0,0,.54,1,34.05,34.05,0,0,0,2.71,4.09c.19-.31,0-.51,0-.71a4.94,4.94,0,0,1,.5-2.34,2.3,2.3,0,0,1,3.52-.73,4.28,4.28,0,0,0,.38.26A.57.57,0,0,0,24.87,20.14Zm-1.6,4c.35-.27.78-.48.94-.94.28-.24.18-.56.19-.86a2.73,2.73,0,0,0-.35-1.77c-.19-.25-.48-.27-.72-.42a1.42,1.42,0,0,0-1.79.19A2.46,2.46,0,0,0,21.15,23c0,.11,0,.23.09.3a.07.07,0,0,0,0,.07A1.64,1.64,0,0,0,23.27,24.15Zm-11.39-.86a19,19,0,0,1-.22-2,7.39,7.39,0,0,0-.14-1.55c-.11-1.25,0-2.51,0-3.77a12.29,12.29,0,0,1,1,1.61c.42.79.82,1.59,1.3,2.35.13.21.32.39.44.6A11.2,11.2,0,0,0,16.82,24c.05,0,.1.08.15.08h2.75c-.17-.19-.2-.41-.39-.5a11.2,11.2,0,0,0-.78-1.16c-.39-.7-1-1.28-1.32-2a4.76,4.76,0,0,0-.5-.88A5.75,5.75,0,0,1,15.88,18c-.2-.51-.45-1-.67-1.52-.11-.25-.43-.39-.38-.7.54-.46,1-.94,1.49-1.41,1.24-1.22,1.25-2.73,1-4.26A5,5,0,0,0,16.27,8,6.82,6.82,0,0,0,14,6.37a3.44,3.44,0,0,0-2.22-.43.19.19,0,0,0-.2-.1H7.74c.15.16,0,.37.18.49A2.35,2.35,0,0,0,8,6.7,9.31,9.31,0,0,1,8.4,9.42c0,3.79,0,7.57,0,11.36a2.92,2.92,0,0,1,0,.51c-.14.72-.23,1.45-.34,2.18a.7.7,0,0,0-.16.56h4.33C12,23.78,12.17,23.45,11.88,23.29Z"/><path class="cls-6" d="M17.39,19a1.25,1.25,0,0,1-.54-1C17.27,18.2,17.22,18.66,17.39,19Z"/><path class="cls-6" d="M24.87,20.14a.57.57,0,0,1-.38-.58A.48.48,0,0,1,24.87,20.14Z"/><path class="cls-4" d="M128.34,22.24a1.37,1.37,0,0,1-.38-.38h.5Z"/><path class="cls-4" d="M127.87,21.77l-.12-.11Z"/><path class="cls-4" d="M100.27,19.54l0-2.68A8,8,0,0,1,100.27,19.54Z"/><path class="cls-4" d="M96.53,14.2c-.18.35-.36.7-.55,1.05C96.06,14.84,96,14.35,96.53,14.2Z"/><path class="cls-4" d="M100,15.64l-.37-.88C100.07,14.92,100,15.29,100,15.64Z"/><path class="cls-4" d="M98.08,22.06c.32-.06.62.16.94.07C98.7,22.26,98.37,22.37,98.08,22.06Z"/><path class="cls-4" d="M96,19.45a1.82,1.82,0,0,1,.36.87A1,1,0,0,1,96,19.45Z"/><path class="cls-4" d="M157.4,19.26c-.05-1,0-1.92-.1-2.88.06,0,.16-.05.16,0A18.22,18.22,0,0,1,157.4,19.26Z"/><path class="cls-4" d="M156.29,22A7.45,7.45,0,0,1,157,20.8a3.63,3.63,0,0,1-.28.92C156.63,22,156.45,21.92,156.29,22Z"/><path class="cls-4" d="M153.25,14.69,152.88,16C152.87,15.54,152.72,15,153.25,14.69Z"/><path class="cls-4" d="M152.87,16.12v.74C152.24,16.61,152.76,16.36,152.87,16.12Z"/><path class="cls-4" d="M153.88,13.78c-.21.12-.28.35-.42.52,0-.22-.13-.54.27-.6l0,.05.06,0Z"/><path class="cls-4" d="M154,13.62l-.13.13C153.84,13.61,154,13.63,154,13.62Z"/><path class="cls-4" d="M154.12,13.53l-.09.09Z"/><path class="cls-4" d="M53.24,13.82c-.54-.27-1-.7-1.7-.33,0-.08,0-.17.06-.21A1.35,1.35,0,0,1,53.24,13.82Z"/><path class="cls-4" d="M53.54,21.92a12,12,0,0,0,.84-1.42,2.91,2.91,0,0,1-.46,1.3C53.83,22,53.68,21.93,53.54,21.92Z"/><path class="cls-4" d="M54.19,15.33l-.58-1.14A.94.94,0,0,1,54.19,15.33Z"/><path class="cls-4" d="M54.6,19.17a7,7,0,0,0,0-2.29c.15,0,.17.11.17.23v1.77C54.77,19,54.76,19.14,54.6,19.17Z"/><path class="cls-4" d="M50.07,16.85v1.56A2.85,2.85,0,0,1,50.07,16.85Z"/><path class="cls-4" d="M220.35,21.81h0l0,0h0Z"/><path class="cls-4" d="M218.51,14.37h0l0,0Z"/><path class="cls-3" d="M32.73,19.75l0,0,0,0Z"/><path class="cls-3" d="M32.44,12l0-.06.06,0Z"/><path class="cls-1" d="M151.66,36.24V34c1,0,2,0,3,0,.51,0,.84.66.79,1.37,0,.38-.41.65-.89.73A25.25,25.25,0,0,1,151.66,36.24Z"/><path class="cls-1" d="M90.16,36.24V34c1,0,2,0,3,0,.52,0,.85.59.83,1.29a.92.92,0,0,1-.87.81A25.76,25.76,0,0,1,90.16,36.24Z"/><path class="cls-1" d="M44.82,36.24V34h3c.08,0,.17.08.25.12a1,1,0,0,1,.55,1.32c-.11.41-.43.59-.91.66C46.76,36.29,45.82,36.18,44.82,36.24Z"/><path class="cls-1" d="M61.19,37a2.26,2.26,0,0,1-1,2.33,2.6,2.6,0,0,1-3.66-.43,3.3,3.3,0,0,1-.43-1.27,3.19,3.19,0,0,1,.78-3A2.38,2.38,0,0,1,59.13,34a2.27,2.27,0,0,1,2.06,2.54C61.18,36.68,61.19,36.84,61.19,37Z"/><path class="cls-1" d="M68.6,36.42V34c.9.13,1.8-.19,2.68.25a1.06,1.06,0,0,1,.65.87,1,1,0,0,1-.58,1.09,1.21,1.21,0,0,1-.57.19C70.06,36.43,69.35,36.42,68.6,36.42Z"/><path class="cls-1" d="M34.11,36.44V34c.91.14,1.79-.17,2.68.24a1.1,1.1,0,0,1,.63,1.27,1,1,0,0,1-.83.8A15.67,15.67,0,0,1,34.11,36.44Z"/><path class="cls-3" d="M8,23.47c.11-.73.2-1.46.34-2.18a2.92,2.92,0,0,0,0-.51c0-3.79,0-7.57,0-11.36A9.31,9.31,0,0,0,8,6.7a2.35,2.35,0,0,1,0-.37c.11-.39.41-.41.76-.4,1,0,2.06,0,3.09,0A3.44,3.44,0,0,1,14,6.37,6.82,6.82,0,0,1,16.27,8a5,5,0,0,1,1.05,2.11c.25,1.53.24,3-1,4.26-.48.47-1,.95-1.49,1.41-.05.31.27.45.38.7.22.51.47,1,.67,1.52a5.75,5.75,0,0,0,.85,1.48,4.76,4.76,0,0,1,.5.88c.35.74.93,1.32,1.32,2a11.2,11.2,0,0,1,.78,1.16c0,.31-.08.42-.4.41-.7,0-1.41,0-2.11,0a11.2,11.2,0,0,1-2.57-3.45c-.12-.21-.31-.39-.44-.6-.48-.76-.88-1.56-1.3-2.35a12.29,12.29,0,0,0-1-1.61c0,1.26-.1,2.52,0,3.77a7.39,7.39,0,0,1,.14,1.55,19,19,0,0,0,.22,2c0,.3.17.69-.42.68-1.11,0-2.22,0-3.35,0C8.18,23.76,8,23.64,8,23.47Zm5.76-9.77.18.06c.12-.35.24-.7.35-1.06,0-.1-.05-.13-.14-.13v-.3a.21.21,0,0,0,.21-.22c0-.53,0-1.07,0-1.6,0-.17-.12-.11-.2-.1a2.53,2.53,0,0,1-.2-.36A2.93,2.93,0,0,0,11.5,8.25v7.19A3.59,3.59,0,0,0,13.78,13.7Z"/><path class="cls-3" d="M21.26,23.38a.07.07,0,0,1,0-.07c0-.11,0-.23-.09-.3a2.46,2.46,0,0,1,.39-2.66,1.42,1.42,0,0,1,1.79-.19c.24.15.53.17.72.42a2.73,2.73,0,0,1,.35,1.77l0,0s0,0,0,0c-.1.29-.32.56-.12.89-.16.46-.59.67-.94.94-.37-.08-.81.18-1.12-.16A2.36,2.36,0,0,0,21.26,23.38Z"/><path class="cls-4" d="M8,23.47c0,.17.16.29.09.49,1.13,0,2.24,0,3.35,0,.59,0,.39-.38.42-.68.29.16.13.49.31.74H7.86A.7.7,0,0,1,8,23.47Z"/><path class="cls-4" d="M11.77,5.94c-1,0-2.06,0-3.09,0-.35,0-.65,0-.76.4-.18-.12,0-.33-.18-.49h3.83A.19.19,0,0,1,11.77,5.94Z"/><path class="cls-4" d="M16.82,24c.7,0,1.41,0,2.11,0,.32,0,.44-.1.4-.41.19.09.22.31.39.5H17S16.87,24,16.82,24Z"/><path class="cls-4" d="M21.26,23.38a2.36,2.36,0,0,1,.89.61c.31.34.75.08,1.12.16A1.64,1.64,0,0,1,21.26,23.38Z"/><path class="cls-4" d="M24.21,23.21c-.2-.33,0-.6.12-.89,0,0,0,0,0,0l0,0C24.39,22.65,24.49,23,24.21,23.21Z"/><path class="cls-4" d="M21.15,23c.13.07.09.19.09.3C21.11,23.24,21.15,23.12,21.15,23Z"/><path class="cls-3" d="M153.75,13.71l-.06,0,0-.05Z"/><path class="cls-5" d="M14.17,12.27v.3a8,8,0,0,1-.39,1.13,3.59,3.59,0,0,1-2.28,1.74V8.25A2.93,2.93,0,0,1,13.94,10a2.53,2.53,0,0,0,.2.36A4.15,4.15,0,0,1,14.17,12.27ZM12.42,9.59a26.7,26.7,0,0,0-.11,4.18C13.71,13.07,13.77,10.45,12.42,9.59Z"/><path class="cls-4" d="M14.17,12.27a4.15,4.15,0,0,0,0-1.92c.08,0,.2-.07.2.1,0,.53,0,1.07,0,1.6A.21.21,0,0,1,14.17,12.27Z"/><path class="cls-4" d="M13.78,13.7a8,8,0,0,0,.39-1.13c.09,0,.17,0,.14.13-.11.36-.23.71-.35,1.06Z"/><path class="cls-2" d="M12.42,9.59c1.35.86,1.29,3.48-.11,4.18A26.7,26.7,0,0,1,12.42,9.59Z"/></svg>